<svg xmlns="http://www.w3.org/2000/svg" viewBox="0 0 128 128">
  <!-- background -->
  <rect width="128" height="128" rx="32" fill="#FFF7D6"/>

  <!-- soft shadow -->
  <ellipse cx="64" cy="92" rx="38" ry="10" fill="#E8C46A" opacity="0.35"/>

  <!-- nest -->
  <path d="M28 78
           C36 102, 92 102, 100 78
           C88 90, 40 90, 28 78Z"
        fill="#D9963B"/>

  <path d="M32 76
           C42 90, 86 90, 96 76"
        fill="none"
        stroke="#8B5A2B"
        stroke-width="8"
        stroke-linecap="round"/>

  <path d="M38 88
           C50 80, 58 96, 72 86
           C82 78, 88 92, 96 84"
        fill="none"
        stroke="#B96F2C"
        stroke-width="6"
        stroke-linecap="round"/>

  <!-- egg -->
  <path d="M64 25
           C47 25, 37 43, 39 61
           C41 80, 51 91, 64 91
           C77 91, 87 80, 89 61
           C91 43, 81 25, 64 25Z"
        fill="#FFFFFF"
        stroke="#2F2A24"
        stroke-width="5"/>

  <!-- pi symbol -->
  <text x="64" y="67"
        text-anchor="middle"
        font-size="42"
        font-family="Georgia, 'Times New Roman', serif"
        font-weight="700"
        fill="#2F2A24">π</text>

  <!-- tiny sparkle -->
  <path d="M98 25 L102 34 L111 38 L102 42 L98 51 L94 42 L85 38 L94 34Z"
        fill="#FFB84D"/>
</svg>